<svg aria-hidden="true" style="position: absolute; width: 0; height: 0; overflow: hidden;" version="1.1" xmlns="http://www.w3.org/2000/svg" xmlns:xlink="http://www.w3.org/1999/xlink">
<defs>
<symbol id="icon-facebook-1" viewBox="0 0 32 32">
<path fill="#f4f4fd" style="fill: var(--color1, #f4f4fd)" d="M21.33 5.314h2.92v-5.088c-1.238-0.144-2.672-0.226-4.125-0.226-0.046 0-0.092 0-0.138 0l0.007-0c-4.212 0-7.094 2.65-7.094 7.52v4.48h-4.65v5.688h4.648v14.312h5.698v-14.31h4.46l0.708-5.69h-5.17v-3.92c0.002-1.644 0.444-2.768 2.736-2.768z"></path>
</symbol>
<symbol id="icon-instagram" viewBox="0 0 32 32">
<path fill="#f4f4fd" style="fill: var(--color1, #f4f4fd)" d="M31.969 9.408c-0.076-1.7-0.351-2.869-0.744-3.883-0.424-1.111-1.054-2.058-1.849-2.836l-0.001-0.001c-0.78-0.792-1.724-1.419-2.778-1.826l-0.054-0.018c-1.019-0.393-2.183-0.671-3.883-0.744-1.712-0.080-2.256-0.1-6.599-0.1-4.348 0-4.892 0.019-6.599 0.093-1.699 0.076-2.868 0.351-3.88 0.744-1.112 0.424-2.059 1.054-2.837 1.849l-0.001 0.001c-0.792 0.78-1.419 1.724-1.826 2.778l-0.018 0.054c-0.393 1.019-0.669 2.181-0.744 3.88-0.080 1.715-0.1 2.259-0.1 6.603 0 4.345 0.019 4.889 0.093 6.596 0.076 1.7 0.351 2.868 0.745 3.881 0.426 1.111 1.055 2.057 1.848 2.838l0.001 0.001c0.8 0.813 1.769 1.444 2.832 1.844 1.019 0.393 2.181 0.668 3.883 0.744 1.707 0.075 2.249 0.093 6.595 0.093 4.344 0 4.888-0.019 6.595-0.093 1.7-0.076 2.869-0.351 3.883-0.744 2.157-0.85 3.832-2.526 4.662-4.627l0.019-0.055c0.395-1.019 0.669-2.181 0.744-3.881 0.075-1.707 0.093-2.251 0.093-6.596 0-4.344-0.005-4.888-0.080-6.595zM29.087 22.473c-0.068 1.563-0.331 2.407-0.549 2.969-0.551 1.399-1.639 2.486-3.003 3.025l-0.036 0.013c-0.563 0.22-1.413 0.481-2.969 0.551-1.688 0.075-2.193 0.093-6.464 0.093-4.269 0-4.781-0.019-6.464-0.093-1.563-0.069-2.407-0.331-2.969-0.551-0.721-0.269-1.335-0.676-1.836-1.192l-0.001-0.001c-0.517-0.504-0.924-1.117-1.183-1.803l-0.011-0.034c-0.219-0.563-0.48-1.413-0.549-2.969-0.075-1.688-0.093-2.195-0.093-6.464 0-4.271 0.019-4.783 0.093-6.464 0.069-1.563 0.331-2.407 0.549-2.969 0.257-0.693 0.664-1.325 1.2-1.839 0.504-0.517 1.119-0.923 1.806-1.182l0.034-0.011c0.561-0.219 1.412-0.48 2.968-0.551 1.688-0.075 2.195-0.093 6.464-0.093 4.276 0 4.781 0.019 6.464 0.093 1.563 0.069 2.407 0.332 2.969 0.551 0.693 0.256 1.325 0.663 1.837 1.193 0.532 0.52 0.937 1.144 1.195 1.839 0.219 0.563 0.48 1.413 0.549 2.969 0.075 1.688 0.093 2.193 0.093 6.464 0 4.269-0.019 4.769-0.093 6.457z"></path>
<path fill="#f4f4fd" style="fill: var(--color1, #f4f4fd)" d="M16.059 7.783c-4.539 0.002-8.218 3.681-8.22 8.22v0c0.001 4.54 3.68 8.22 8.22 8.221h0c4.54-0.001 8.221-3.681 8.221-8.221v-0c-0.002-4.54-3.682-8.219-8.221-8.22h-0zM16.059 21.336c-2.945-0.001-5.332-2.388-5.332-5.333s2.388-5.333 5.333-5.333c0 0 0.001 0 0.001 0h-0c2.945 0.001 5.332 2.388 5.332 5.333s-2.388 5.333-5.333 5.333c-0 0-0.001 0-0.001 0h0zM26.524 7.457c0 0.015 0.001 0.033 0.001 0.051 0 1.060-0.86 1.92-1.92 1.92s-1.92-0.86-1.92-1.92c0-0.018 0-0.036 0.001-0.053l-0 0.003c0.028-1.038 0.877-1.869 1.919-1.869s1.891 0.831 1.919 1.867l0 0.003z"></path>
</symbol>
<symbol id="icon-linkedin-1" viewBox="0 0 32 32">
<path fill="#f4f4fd" style="fill: var(--color1, #f4f4fd)" d="M31.992 32h0.008v-11.74c0-5.74-1.236-10.164-7.948-10.164-3.226 0-5.392 1.772-6.276 3.45h-0.094v-2.912h-6.362v21.366h6.628v-10.58c0-2.784 0.528-5.476 3.976-5.476 3.4 0 3.45 3.178 3.45 5.656v10.4h6.62zM0.528 10.636h6.634v21.364h-6.634v-21.364zM3.842 0c-2.12 0-3.84 1.72-3.84 3.84s1.72 3.88 3.84 3.88c2.122 0 3.844-1.76 3.844-3.88s-1.726-3.84-3.846-3.84z"></path>
</symbol>
<symbol id="icon-twitter-1" viewBox="0 0 32 32">
<path fill="#f4f4fd" style="fill: var(--color1, #f4f4fd)" d="M32 6.078c-1.1 0.494-2.376 0.858-3.712 1.029l-0.068 0.007c1.36-0.817 2.381-2.078 2.873-3.58l0.013-0.046c-1.197 0.723-2.591 1.274-4.076 1.574l-0.084 0.014c-1.2-1.279-2.901-2.076-4.788-2.076-3.623 0-6.56 2.937-6.56 6.56v0c0 0.52 0.044 1.020 0.152 1.496-5.468-0.276-10.278-2.878-13.495-6.828l-0.027-0.034c-0.563 0.949-0.895 2.091-0.895 3.311 0 2.264 1.145 4.261 2.888 5.442l0.023 0.015c-1.092-0.030-2.109-0.325-2.997-0.823l0.033 0.017v0.072c0.004 3.164 2.237 5.806 5.213 6.438l0.043 0.008c-0.501 0.137-1.075 0.216-1.669 0.216-0.018 0-0.036-0-0.054-0l0.003 0c-0.031 0.001-0.067 0.001-0.103 0.001-0.403 0-0.796-0.041-1.176-0.119l0.037 0.006c0.873 2.624 3.273 4.496 6.121 4.57l0.009 0c-2.214 1.744-5.044 2.798-8.12 2.798-0.005 0-0.010 0-0.015 0h0.001c-0.538 0-1.054-0.024-1.57-0.090 2.826 1.846 6.287 2.944 10.004 2.944 0.021 0 0.042-0 0.063-0h-0.003c12.072 0 18.672-10 18.672-18.668 0-0.29-0.010-0.57-0.024-0.848 1.299-0.937 2.391-2.066 3.258-3.359l0.030-0.047z"></path>
</symbol>
<symbol id="icon-person" viewBox="0 0 32 32">
<path d="M16 16c2.946 0 5.333-2.388 5.333-5.333s-2.388-5.333-5.333-5.333v0c-2.946 0-5.333 2.388-5.333 5.333s2.388 5.333 5.333 5.333v0zM16 18.667c-3.561 0-10.667 1.787-10.667 5.333v1.333c0 0.732 0.599 1.333 1.333 1.333h18.667c0.732 0 1.333-0.601 1.333-1.333v-1.333c0-3.547-7.108-5.333-10.667-5.333z"></path>
</symbol>
<symbol id="icon-email" viewBox="0 0 24 32">
<path d="M20 8h-16c-1.1 0-1.989 0.9-1.989 2l-0.011 12c0 1.1 0.9 2 2 2h16c1.1 0 2-0.9 2-2v-12c0-1.1-0.9-2-2-2zM19.6 12.251l-7.069 4.419c-0.151 0.094-0.334 0.15-0.531 0.15s-0.38-0.056-0.535-0.153l0.004 0.002-7.069-4.419c-0.252-0.15-0.418-0.422-0.418-0.731 0-0.469 0.38-0.849 0.849-0.849 0.174 0 0.337 0.053 0.471 0.143l6.697 4.187 6.7-4.191c0.132-0.088 0.294-0.141 0.468-0.141 0.469 0 0.849 0.38 0.849 0.849 0 0.31-0.166 0.581-0.414 0.729l-0.004 0.002z"></path>
</symbol>
<symbol id="icon-phone" viewBox="0 0 24 32">
<path d="M19.635 18.487l-2.451-0.28c-0.067-0.008-0.145-0.013-0.223-0.013-0.531 0-1.012 0.215-1.36 0.564l-1.775 1.775c-2.752-1.42-4.94-3.607-6.322-6.278l-0.038-0.081 1.787-1.785c0.347-0.347 0.562-0.827 0.562-1.358 0-0.079-0.005-0.156-0.014-0.233l0.001 0.009-0.28-2.432c-0.115-0.966-0.93-1.708-1.918-1.708-0.001 0-0.002 0-0.002 0h-1.669c-1.091 0-1.997 0.907-1.929 1.997 0.511 8.24 7.101 14.821 15.332 15.333 1.091 0.067 1.997-0.84 1.997-1.931v-1.669c0-0.003 0-0.007 0-0.011 0-0.981-0.739-1.789-1.69-1.899l-0.009-0.001z"></path>
</symbol>
<symbol id="icon-check" viewBox="0 0 40 32">
<path d="M33.784 1.020c0.659-0.637 1.558-1.030 2.548-1.030 2.007 0 3.637 1.611 3.668 3.611l0 0.003c0.001 0.028 0.001 0.061 0.001 0.095 0 0.965-0.368 1.844-0.972 2.504l0.003-0.003-19.576 24.616c-0.674 0.728-1.635 1.182-2.702 1.182-0.495 0-0.967-0.098-1.398-0.275l0.024 0.009c-0.477-0.197-0.884-0.473-1.224-0.816l-0-0-12.984-13.052c-0.724-0.677-1.175-1.638-1.175-2.705 0-0.501 0.1-0.98 0.28-1.416l-0.009 0.025c0.564-1.367 1.887-2.312 3.43-2.312 0.018 0 0.035 0 0.053 0l-0.003-0c1.038 0.019 1.967 0.467 2.622 1.174l0.002 0.002 10.276 10.328 17.040-21.832c0.032-0.039 0.065-0.074 0.1-0.108l-0.004-0z"></path>
</symbol>
<symbol id="icon-plane" viewBox="0 0 32 32">
<path fill="#fff" style="fill: var(--color2, #fff)" d="M32 2.667l-32 15 10.227 3.156 15.773-12.323-11.997 13.488 0.009 0.004-0.012-0.004v7.345l5.735-5.576 7.267 2.243 4.999-23.333z"></path>
</symbol>
</defs>
</svg>
